<?xml version="1.0" standalone="no"?><!DOCTYPE svg PUBLIC "-//W3C//DTD SVG 1.1//EN" "http://www.w3.org/Graphics/SVG/1.1/DTD/svg11.dtd"><svg t="1616382441668" class="icon" viewBox="0 0 1194 1024" version="1.1" xmlns="http://www.w3.org/2000/svg" p-id="2963" xmlns:xlink="http://www.w3.org/1999/xlink" width="55.96875" height="48"><defs><style type="text/css"></style></defs><path d="M1024 85.333333c46.933333 0 85.333333 38.4 85.333333 85.333334v512c0 46.933333-38.4 85.333333-85.333333 85.333333H170.666667c-46.933333 0-85.333333-38.4-85.333334-85.333333V170.666667c0-46.933333 38.4-85.333333 85.333334-85.333334h853.333333m0-85.333333H170.666667C76.8 0 0 76.8 0 170.666667v512c0 93.866667 76.8 170.666667 170.666667 170.666666h853.333333c93.866667 0 170.666667-76.8 170.666667-170.666666V170.666667c0-93.866667-76.8-170.666667-170.666667-170.666667zM896 1024H298.666667c-25.6 0-42.666667-17.066667-42.666667-42.666667s17.066667-42.666667 42.666667-42.666666h597.333333c25.6 0 42.666667 17.066667 42.666667 42.666666s-17.066667 42.666667-42.666667 42.666667z" fill="#e6e6e6" p-id="2964"></path><path d="M298.666667 597.333333v-128c0-25.6 17.066667-42.666667 42.666666-42.666666s42.666667 17.066667 42.666667 42.666666v128c0 25.6-17.066667 42.666667-42.666667 42.666667s-42.666667-17.066667-42.666666-42.666667zM469.333333 597.333333V384c0-25.6 17.066667-42.666667 42.666667-42.666667s42.666667 17.066667 42.666667 42.666667v213.333333c0 25.6-17.066667 42.666667-42.666667 42.666667s-42.666667-17.066667-42.666667-42.666667zM640 597.333333V256c0-25.6 17.066667-42.666667 42.666667-42.666667s42.666667 17.066667 42.666666 42.666667v341.333333c0 25.6-17.066667 42.666667-42.666666 42.666667s-42.666667-17.066667-42.666667-42.666667zM810.666667 597.333333V384c0-25.6 17.066667-42.666667 42.666666-42.666667s42.666667 17.066667 42.666667 42.666667v213.333333c0 25.6-17.066667 42.666667-42.666667 42.666667s-42.666667-17.066667-42.666666-42.666667z" fill="#e6e6e6" p-id="2965"></path></svg>