<svg t="1598941465287" class="icon" viewBox="0 0 1024 1024" version="1.1" xmlns="http://www.w3.org/2000/svg" p-id="8246" width="48" height="48"><path d="M979.2 610.133333 979.2 610.133333l-213.333333-426.666667 0 0C761.6 174.933333 755.2 170.666667 746.666667 170.666667l-21.333333 0c-12.8 0-21.333333 8.533333-21.333333 21.333333 0 12.8 8.533333 21.333333 21.333333 21.333333l8.533333 0 192 384L704 597.333333l-23.466667 0L661.333333 597.333333c-12.8 0-21.333333 8.533333-21.333333 21.333333 0 70.4-57.6 128-128 128s-128-57.6-128-128c0-12.8-8.533333-21.333333-21.333333-21.333333l-19.2 0L320 597.333333 98.133333 597.333333l192-384L298.666667 213.333333c12.8 0 21.333333-8.533333 21.333333-21.333333 0-12.8-8.533333-21.333333-21.333333-21.333333l-21.333333 0c-8.533333 0-14.933333 4.266667-19.2 12.8l0 0-213.333333 426.666667 0 0C42.666667 612.266667 42.666667 614.4 42.666667 618.666667l0 298.666667c0 12.8 8.533333 21.333333 21.333333 21.333333l896 0c12.8 0 21.333333-8.533333 21.333333-21.333333L981.333333 618.666667C981.333333 614.4 981.333333 612.266667 979.2 610.133333zM938.666667 896 85.333333 896 85.333333 640l258.133333 0c10.666667 83.2 83.2 149.333333 168.533333 149.333333 87.466667 0 157.866667-66.133333 168.533333-149.333333L938.666667 640 938.666667 896zM384 256c6.4 0 10.666667-2.133333 14.933333-6.4L490.666667 157.866667 490.666667 576c0 12.8 8.533333 21.333333 21.333333 21.333333s21.333333-8.533333 21.333333-21.333333L533.333333 157.866667l91.733333 91.733333c4.266667 4.266667 8.533333 6.4 14.933333 6.4 12.8 0 21.333333-8.533333 21.333333-21.333333 0-6.4-2.133333-10.666667-6.4-14.933333l-128-128C522.666667 87.466667 518.4 85.333333 512 85.333333s-10.666667 2.133333-14.933333 6.4l-128 128C364.8 224 362.666667 228.266667 362.666667 234.666667 362.666667 247.466667 371.2 256 384 256z" p-id="8247" fill="#ffffff"></path></svg>