<?xml version="1.0" standalone="no"?><!DOCTYPE svg PUBLIC "-//W3C//DTD SVG 1.1//EN" "http://www.w3.org/Graphics/SVG/1.1/DTD/svg11.dtd"><svg t="1616382051351" class="icon" viewBox="0 0 1024 1024" version="1.1" xmlns="http://www.w3.org/2000/svg" p-id="2148" xmlns:xlink="http://www.w3.org/1999/xlink" width="48" height="48"><defs><style type="text/css"></style></defs><path d="M210.432 0H814.08c111.104 0 201.216 90.112 201.216 201.216V640c0 111.104-90.112 201.216-201.216 201.216H210.432c-111.104 0-201.216-90.112-201.216-201.216V201.216C9.216 90.112 99.328 0 210.432 0z m0 73.216c-70.656 0-128 57.344-128 128V640c0 70.656 57.344 128 128 128H814.08c70.656 0 128-57.344 128-128V201.216c0-70.656-57.344-128-128-128H210.432zM146.432 1024h731.648c15.36 0 27.648-12.288 27.648-27.648 0-15.36-12.288-27.136-27.648-27.648H146.432c-15.36 0-27.648 12.288-27.648 27.648 0 15.36 12.288 27.648 27.648 27.648z" p-id="2149" fill="#e6e6e6"></path><path d="M248.32 585.728l166.912-173.056c0.512-0.512 2.048-0.512 2.56 0l121.856 127.488c21.504 22.528 57.344 23.552 80.384 1.536 2.048-1.536 3.584-3.584 5.12-5.632l210.432-263.168c9.216-11.776 7.68-29.184-4.096-38.4-11.776-9.216-29.184-7.68-38.4 4.096L582.144 501.76c-0.512 0.512-2.048 0.512-2.56 0L457.216 374.784c-0.512-1.024-0.512-1.024-1.536-1.536-22.528-21.504-58.368-20.992-80.384 1.536L208.896 547.84c-10.752 10.752-10.24 28.16 0.512 38.912s28.672 10.24 38.912-1.024z" p-id="2150" fill="#e6e6e6"></path></svg>